<?xml version="1.0" encoding="UTF-8" standalone="no"?>
<!DOCTYPE svg PUBLIC "-//W3C//DTD SVG 1.1//EN" "http://www.w3.org/Graphics/SVG/1.1/DTD/svg11.dtd">
<svg width="100%" height="100%" viewBox="0 0 700 120" version="1.1" xmlns="http://www.w3.org/2000/svg" xmlns:xlink="http://www.w3.org/1999/xlink" xml:space="preserve" xmlns:serif="http://www.serif.com/" style="fill-rule:evenodd;clip-rule:evenodd;stroke-linejoin:round;stroke-miterlimit:2;">
    <g>
        <clipPath id="_clip1">
            <path d="M-254.972,3491.93L-1544.99,3491.93L-1544.99,-272.072L2219.01,-272.072L2219.01,3491.93L954.972,3491.93C1627.19,3245.18 2107.38,2599.03 2107.38,1841.62C2107.38,871.691 1319.93,84.234 350,84.234C-619.926,84.234 -1407.38,871.691 -1407.38,1841.62C-1407.38,2599.03 -927.188,3245.18 -254.972,3491.93Z"/>
        </clipPath>
        <g clip-path="url(#_clip1)">
            <g transform="matrix(1.22669,0,0,1.22669,-24.2664,-1.95245)">
                <g transform="matrix(90.1811,0,0,90.1811,24.1509,73.3128)">
                    <path d="M0.567,-0.702L0.567,-0.565L0.381,-0.565L0.381,-0L0.21,-0L0.21,-0.565L0.024,-0.565L0.024,-0.702L0.567,-0.702Z" style="fill:rgb(28,116,187);fill-rule:nonzero;"/>
                </g>
                <g transform="matrix(82.7122,0,0,82.7122,74.7425,73.3128)">
                    <path d="M0.209,-0.468C0.227,-0.497 0.251,-0.52 0.28,-0.537C0.309,-0.554 0.342,-0.562 0.379,-0.562L0.379,-0.415L0.342,-0.415C0.298,-0.415 0.265,-0.405 0.243,-0.384C0.22,-0.363 0.209,-0.327 0.209,-0.276L0.209,-0L0.069,-0L0.069,-0.554L0.209,-0.554L0.209,-0.468Z" style="fill:rgb(105,176,233);fill-rule:nonzero;"/>
                </g>
                <g transform="matrix(82.7122,0,0,82.7122,105.677,73.3128)">
                    <path d="M0.033,-0.279C0.033,-0.335 0.044,-0.385 0.067,-0.428C0.089,-0.471 0.119,-0.505 0.158,-0.528C0.196,-0.551 0.239,-0.563 0.286,-0.563C0.327,-0.563 0.364,-0.555 0.395,-0.538C0.426,-0.521 0.45,-0.5 0.469,-0.475L0.469,-0.554L0.61,-0.554L0.61,-0L0.469,-0L0.469,-0.081C0.451,-0.055 0.426,-0.034 0.395,-0.017C0.363,0.001 0.326,0.009 0.285,0.009C0.238,0.009 0.196,-0.003 0.158,-0.027C0.119,-0.051 0.089,-0.085 0.067,-0.129C0.044,-0.172 0.033,-0.222 0.033,-0.279ZM0.469,-0.277C0.469,-0.311 0.462,-0.34 0.449,-0.365C0.436,-0.389 0.418,-0.408 0.395,-0.421C0.372,-0.434 0.348,-0.44 0.322,-0.44C0.296,-0.44 0.272,-0.434 0.25,-0.421C0.228,-0.408 0.21,-0.39 0.197,-0.366C0.183,-0.341 0.176,-0.312 0.176,-0.279C0.176,-0.246 0.183,-0.217 0.197,-0.192C0.21,-0.167 0.228,-0.147 0.251,-0.134C0.273,-0.121 0.297,-0.114 0.322,-0.114C0.348,-0.114 0.372,-0.121 0.395,-0.134C0.418,-0.147 0.436,-0.165 0.449,-0.19C0.462,-0.214 0.469,-0.243 0.469,-0.277Z" style="fill:rgb(105,176,233);fill-rule:nonzero;"/>
                </g>
                <g transform="matrix(82.7122,0,0,82.7122,159.274,73.3128)">
                    <path d="M0.3,-0.129L0.44,-0.554L0.589,-0.554L0.384,-0L0.214,-0L0.01,-0.554L0.16,-0.554L0.3,-0.129Z" style="fill:rgb(105,176,233);fill-rule:nonzero;"/>
                </g>
                <g transform="matrix(82.7122,0,0,82.7122,206.338,73.3128)">
                    <path d="M0.584,-0.289C0.584,-0.269 0.583,-0.251 0.58,-0.235L0.175,-0.235C0.178,-0.195 0.192,-0.164 0.217,-0.141C0.242,-0.118 0.272,-0.107 0.308,-0.107C0.36,-0.107 0.397,-0.129 0.419,-0.174L0.57,-0.174C0.554,-0.121 0.523,-0.077 0.478,-0.043C0.433,-0.008 0.377,0.009 0.311,0.009C0.258,0.009 0.21,-0.003 0.168,-0.027C0.125,-0.05 0.092,-0.084 0.069,-0.127C0.045,-0.17 0.033,-0.22 0.033,-0.277C0.033,-0.334 0.045,-0.385 0.068,-0.428C0.091,-0.471 0.124,-0.505 0.166,-0.528C0.208,-0.551 0.256,-0.563 0.311,-0.563C0.364,-0.563 0.411,-0.552 0.453,-0.529C0.494,-0.506 0.527,-0.474 0.55,-0.433C0.572,-0.391 0.584,-0.343 0.584,-0.289ZM0.439,-0.329C0.438,-0.365 0.425,-0.394 0.4,-0.416C0.375,-0.437 0.344,-0.448 0.307,-0.448C0.272,-0.448 0.243,-0.438 0.22,-0.417C0.196,-0.396 0.181,-0.366 0.176,-0.329L0.439,-0.329Z" style="fill:rgb(105,176,233);fill-rule:nonzero;"/>
                </g>
                <g transform="matrix(82.7122,0,0,82.7122,254.89,73.3128)">
                    <rect x="0.069" y="-0.74" width="0.14" height="0.74" style="fill:rgb(105,176,233);fill-rule:nonzero;"/>
                </g>
                <g transform="matrix(90.1811,0,0,90.1811,292.606,73.3128)">
                    <path d="M0.567,-0.702L0.567,-0.565L0.381,-0.565L0.381,-0L0.21,-0L0.21,-0.565L0.024,-0.565L0.024,-0.702L0.567,-0.702Z" style="fill:rgb(99,173,38);fill-opacity:0;fill-rule:nonzero;"/>
                </g>
                <g transform="matrix(82.7122,0,0,82.7122,343.198,73.3128)">
                    <path d="M0.033,-0.279C0.033,-0.335 0.044,-0.385 0.067,-0.428C0.089,-0.471 0.119,-0.505 0.158,-0.528C0.196,-0.551 0.239,-0.563 0.286,-0.563C0.327,-0.563 0.364,-0.555 0.395,-0.538C0.426,-0.521 0.45,-0.5 0.469,-0.475L0.469,-0.554L0.61,-0.554L0.61,-0L0.469,-0L0.469,-0.081C0.451,-0.055 0.426,-0.034 0.395,-0.017C0.363,0.001 0.326,0.009 0.285,0.009C0.238,0.009 0.196,-0.003 0.158,-0.027C0.119,-0.051 0.089,-0.085 0.067,-0.129C0.044,-0.172 0.033,-0.222 0.033,-0.279ZM0.469,-0.277C0.469,-0.311 0.462,-0.34 0.449,-0.365C0.436,-0.389 0.418,-0.408 0.395,-0.421C0.372,-0.434 0.348,-0.44 0.322,-0.44C0.296,-0.44 0.272,-0.434 0.25,-0.421C0.228,-0.408 0.21,-0.39 0.197,-0.366C0.183,-0.341 0.176,-0.312 0.176,-0.279C0.176,-0.246 0.183,-0.217 0.197,-0.192C0.21,-0.167 0.228,-0.147 0.251,-0.134C0.273,-0.121 0.297,-0.114 0.322,-0.114C0.348,-0.114 0.372,-0.121 0.395,-0.134C0.418,-0.147 0.436,-0.165 0.449,-0.19C0.462,-0.214 0.469,-0.243 0.469,-0.277Z" style="fill:rgb(144,215,86);fill-rule:nonzero;"/>
                </g>
                <g transform="matrix(82.7122,0,0,82.7122,396.796,73.3128)">
                    <path d="M0.286,-0.563C0.327,-0.563 0.364,-0.555 0.395,-0.539C0.426,-0.522 0.451,-0.501 0.469,-0.475L0.469,-0.554L0.61,-0.554L0.61,0.004C0.61,0.055 0.6,0.101 0.579,0.142C0.558,0.182 0.527,0.214 0.486,0.238C0.445,0.261 0.395,0.273 0.336,0.273C0.257,0.273 0.193,0.255 0.143,0.218C0.092,0.181 0.064,0.131 0.057,0.068L0.196,0.068C0.203,0.093 0.219,0.114 0.244,0.129C0.268,0.143 0.297,0.151 0.332,0.151C0.373,0.151 0.406,0.139 0.431,0.115C0.456,0.09 0.469,0.053 0.469,0.004L0.469,-0.082C0.451,-0.056 0.426,-0.034 0.395,-0.017C0.363,0 0.327,0.009 0.286,0.009C0.239,0.009 0.197,-0.003 0.158,-0.027C0.119,-0.051 0.089,-0.085 0.067,-0.129C0.044,-0.172 0.033,-0.222 0.033,-0.279C0.033,-0.335 0.044,-0.385 0.067,-0.428C0.089,-0.471 0.119,-0.505 0.158,-0.528C0.196,-0.551 0.239,-0.563 0.286,-0.563ZM0.469,-0.277C0.469,-0.311 0.462,-0.34 0.449,-0.365C0.436,-0.389 0.418,-0.408 0.395,-0.421C0.372,-0.434 0.348,-0.44 0.322,-0.44C0.296,-0.44 0.272,-0.434 0.25,-0.421C0.228,-0.408 0.21,-0.39 0.197,-0.366C0.183,-0.341 0.176,-0.312 0.176,-0.279C0.176,-0.246 0.183,-0.217 0.197,-0.192C0.21,-0.167 0.228,-0.147 0.251,-0.134C0.273,-0.121 0.297,-0.114 0.322,-0.114C0.348,-0.114 0.372,-0.121 0.395,-0.134C0.418,-0.147 0.436,-0.165 0.449,-0.19C0.462,-0.214 0.469,-0.243 0.469,-0.277Z" style="fill:rgb(144,215,86);fill-rule:nonzero;"/>
                </g>
                <g transform="matrix(82.7122,0,0,82.7122,450.393,73.3128)">
                    <path d="M0.286,-0.563C0.327,-0.563 0.364,-0.555 0.395,-0.539C0.426,-0.522 0.451,-0.501 0.469,-0.475L0.469,-0.554L0.61,-0.554L0.61,0.004C0.61,0.055 0.6,0.101 0.579,0.142C0.558,0.182 0.527,0.214 0.486,0.238C0.445,0.261 0.395,0.273 0.336,0.273C0.257,0.273 0.193,0.255 0.143,0.218C0.092,0.181 0.064,0.131 0.057,0.068L0.196,0.068C0.203,0.093 0.219,0.114 0.244,0.129C0.268,0.143 0.297,0.151 0.332,0.151C0.373,0.151 0.406,0.139 0.431,0.115C0.456,0.09 0.469,0.053 0.469,0.004L0.469,-0.082C0.451,-0.056 0.426,-0.034 0.395,-0.017C0.363,0 0.327,0.009 0.286,0.009C0.239,0.009 0.197,-0.003 0.158,-0.027C0.119,-0.051 0.089,-0.085 0.067,-0.129C0.044,-0.172 0.033,-0.222 0.033,-0.279C0.033,-0.335 0.044,-0.385 0.067,-0.428C0.089,-0.471 0.119,-0.505 0.158,-0.528C0.196,-0.551 0.239,-0.563 0.286,-0.563ZM0.469,-0.277C0.469,-0.311 0.462,-0.34 0.449,-0.365C0.436,-0.389 0.418,-0.408 0.395,-0.421C0.372,-0.434 0.348,-0.44 0.322,-0.44C0.296,-0.44 0.272,-0.434 0.25,-0.421C0.228,-0.408 0.21,-0.39 0.197,-0.366C0.183,-0.341 0.176,-0.312 0.176,-0.279C0.176,-0.246 0.183,-0.217 0.197,-0.192C0.21,-0.167 0.228,-0.147 0.251,-0.134C0.273,-0.121 0.297,-0.114 0.322,-0.114C0.348,-0.114 0.372,-0.121 0.395,-0.134C0.418,-0.147 0.436,-0.165 0.449,-0.19C0.462,-0.214 0.469,-0.243 0.469,-0.277Z" style="fill:rgb(144,215,86);fill-rule:nonzero;"/>
                </g>
                <g transform="matrix(82.7122,0,0,82.7122,503.991,73.3128)">
                    <path d="M0.584,-0.289C0.584,-0.269 0.583,-0.251 0.58,-0.235L0.175,-0.235C0.178,-0.195 0.192,-0.164 0.217,-0.141C0.242,-0.118 0.272,-0.107 0.308,-0.107C0.36,-0.107 0.397,-0.129 0.419,-0.174L0.57,-0.174C0.554,-0.121 0.523,-0.077 0.478,-0.043C0.433,-0.008 0.377,0.009 0.311,0.009C0.258,0.009 0.21,-0.003 0.168,-0.027C0.125,-0.05 0.092,-0.084 0.069,-0.127C0.045,-0.17 0.033,-0.22 0.033,-0.277C0.033,-0.334 0.045,-0.385 0.068,-0.428C0.091,-0.471 0.124,-0.505 0.166,-0.528C0.208,-0.551 0.256,-0.563 0.311,-0.563C0.364,-0.563 0.411,-0.552 0.453,-0.529C0.494,-0.506 0.527,-0.474 0.55,-0.433C0.572,-0.391 0.584,-0.343 0.584,-0.289ZM0.439,-0.329C0.438,-0.365 0.425,-0.394 0.4,-0.416C0.375,-0.437 0.344,-0.448 0.307,-0.448C0.272,-0.448 0.243,-0.438 0.22,-0.417C0.196,-0.396 0.181,-0.366 0.176,-0.329L0.439,-0.329Z" style="fill:rgb(144,215,86);fill-rule:nonzero;"/>
                </g>
                <g transform="matrix(82.7122,0,0,82.7122,552.543,73.3128)">
                    <path d="M0.209,-0.468C0.227,-0.497 0.251,-0.52 0.28,-0.537C0.309,-0.554 0.342,-0.562 0.379,-0.562L0.379,-0.415L0.342,-0.415C0.298,-0.415 0.265,-0.405 0.243,-0.384C0.22,-0.363 0.209,-0.327 0.209,-0.276L0.209,-0L0.069,-0L0.069,-0.554L0.209,-0.554L0.209,-0.468Z" style="fill:rgb(144,215,86);fill-rule:nonzero;"/>
                </g>
            </g>
            <g transform="matrix(1.22669,0,0,1.22669,304.734,-1.95245)">
                <path d="M75.284,10.006L75.284,22.36L58.51,22.36L50.754,73.313L43.089,22.36L26.315,22.36L26.315,10.006L75.284,10.006Z" style="fill:rgb(83,154,24);fill-rule:nonzero;"/>
            </g>
            <g transform="matrix(2.6941,0,0,2.6941,500.87,-405.259)">
                <circle cx="-56" cy="748" r="568" style="fill:rgb(0,108,147);"/>
            </g>
        </g>
    </g>
    <g transform="matrix(1.22669,0,0,1.22669,-24.2664,-1.95245)">
        <g transform="matrix(90.1811,0,0,90.1811,24.1509,73.3128)">
            <path d="M0.567,-0.702L0.567,-0.565L0.381,-0.565L0.381,-0L0.21,-0L0.21,-0.565L0.024,-0.565L0.024,-0.702L0.567,-0.702Z" style="fill:rgb(26,128,211);fill-opacity:0;fill-rule:nonzero;"/>
        </g>
        <g transform="matrix(82.7122,0,0,82.7122,74.7425,73.3128)">
            <path d="M0.209,-0.468C0.227,-0.497 0.251,-0.52 0.28,-0.537C0.309,-0.554 0.342,-0.562 0.379,-0.562L0.379,-0.415L0.342,-0.415C0.298,-0.415 0.265,-0.405 0.243,-0.384C0.22,-0.363 0.209,-0.327 0.209,-0.276L0.209,-0L0.069,-0L0.069,-0.554L0.209,-0.554L0.209,-0.468Z" style="fill:rgb(105,176,233);fill-opacity:0;fill-rule:nonzero;"/>
        </g>
        <g transform="matrix(82.7122,0,0,82.7122,105.677,73.3128)">
            <path d="M0.033,-0.279C0.033,-0.335 0.044,-0.385 0.067,-0.428C0.089,-0.471 0.119,-0.505 0.158,-0.528C0.196,-0.551 0.239,-0.563 0.286,-0.563C0.327,-0.563 0.364,-0.555 0.395,-0.538C0.426,-0.521 0.45,-0.5 0.469,-0.475L0.469,-0.554L0.61,-0.554L0.61,-0L0.469,-0L0.469,-0.081C0.451,-0.055 0.426,-0.034 0.395,-0.017C0.363,0.001 0.326,0.009 0.285,0.009C0.238,0.009 0.196,-0.003 0.158,-0.027C0.119,-0.051 0.089,-0.085 0.067,-0.129C0.044,-0.172 0.033,-0.222 0.033,-0.279ZM0.469,-0.277C0.469,-0.311 0.462,-0.34 0.449,-0.365C0.436,-0.389 0.418,-0.408 0.395,-0.421C0.372,-0.434 0.348,-0.44 0.322,-0.44C0.296,-0.44 0.272,-0.434 0.25,-0.421C0.228,-0.408 0.21,-0.39 0.197,-0.366C0.183,-0.341 0.176,-0.312 0.176,-0.279C0.176,-0.246 0.183,-0.217 0.197,-0.192C0.21,-0.167 0.228,-0.147 0.251,-0.134C0.273,-0.121 0.297,-0.114 0.322,-0.114C0.348,-0.114 0.372,-0.121 0.395,-0.134C0.418,-0.147 0.436,-0.165 0.449,-0.19C0.462,-0.214 0.469,-0.243 0.469,-0.277Z" style="fill:rgb(105,176,233);fill-opacity:0;fill-rule:nonzero;"/>
        </g>
        <g transform="matrix(82.7122,0,0,82.7122,159.274,73.3128)">
            <path d="M0.3,-0.129L0.44,-0.554L0.589,-0.554L0.384,-0L0.214,-0L0.01,-0.554L0.16,-0.554L0.3,-0.129Z" style="fill:rgb(105,176,233);fill-opacity:0;fill-rule:nonzero;"/>
        </g>
        <g transform="matrix(82.7122,0,0,82.7122,206.338,73.3128)">
            <path d="M0.584,-0.289C0.584,-0.269 0.583,-0.251 0.58,-0.235L0.175,-0.235C0.178,-0.195 0.192,-0.164 0.217,-0.141C0.242,-0.118 0.272,-0.107 0.308,-0.107C0.36,-0.107 0.397,-0.129 0.419,-0.174L0.57,-0.174C0.554,-0.121 0.523,-0.077 0.478,-0.043C0.433,-0.008 0.377,0.009 0.311,0.009C0.258,0.009 0.21,-0.003 0.168,-0.027C0.125,-0.05 0.092,-0.084 0.069,-0.127C0.045,-0.17 0.033,-0.22 0.033,-0.277C0.033,-0.334 0.045,-0.385 0.068,-0.428C0.091,-0.471 0.124,-0.505 0.166,-0.528C0.208,-0.551 0.256,-0.563 0.311,-0.563C0.364,-0.563 0.411,-0.552 0.453,-0.529C0.494,-0.506 0.527,-0.474 0.55,-0.433C0.572,-0.391 0.584,-0.343 0.584,-0.289ZM0.439,-0.329C0.438,-0.365 0.425,-0.394 0.4,-0.416C0.375,-0.437 0.344,-0.448 0.307,-0.448C0.272,-0.448 0.243,-0.438 0.22,-0.417C0.196,-0.396 0.181,-0.366 0.176,-0.329L0.439,-0.329Z" style="fill:rgb(105,176,233);fill-opacity:0;fill-rule:nonzero;"/>
        </g>
        <g transform="matrix(82.7122,0,0,82.7122,254.89,73.3128)">
            <rect x="0.069" y="-0.74" width="0.14" height="0.74" style="fill:rgb(105,176,233);fill-opacity:0;fill-rule:nonzero;"/>
        </g>
        <g transform="matrix(90.1811,0,0,90.1811,292.606,73.3128)">
            <path d="M0.567,-0.702L0.567,-0.565L0.381,-0.565L0.381,-0L0.21,-0L0.21,-0.565L0.024,-0.565L0.024,-0.702L0.567,-0.702Z" style="fill:rgb(99,173,38);fill-opacity:0;fill-rule:nonzero;"/>
        </g>
        <g transform="matrix(82.7122,0,0,82.7122,343.198,73.3128)">
            <path d="M0.033,-0.279C0.033,-0.335 0.044,-0.385 0.067,-0.428C0.089,-0.471 0.119,-0.505 0.158,-0.528C0.196,-0.551 0.239,-0.563 0.286,-0.563C0.327,-0.563 0.364,-0.555 0.395,-0.538C0.426,-0.521 0.45,-0.5 0.469,-0.475L0.469,-0.554L0.61,-0.554L0.61,-0L0.469,-0L0.469,-0.081C0.451,-0.055 0.426,-0.034 0.395,-0.017C0.363,0.001 0.326,0.009 0.285,0.009C0.238,0.009 0.196,-0.003 0.158,-0.027C0.119,-0.051 0.089,-0.085 0.067,-0.129C0.044,-0.172 0.033,-0.222 0.033,-0.279ZM0.469,-0.277C0.469,-0.311 0.462,-0.34 0.449,-0.365C0.436,-0.389 0.418,-0.408 0.395,-0.421C0.372,-0.434 0.348,-0.44 0.322,-0.44C0.296,-0.44 0.272,-0.434 0.25,-0.421C0.228,-0.408 0.21,-0.39 0.197,-0.366C0.183,-0.341 0.176,-0.312 0.176,-0.279C0.176,-0.246 0.183,-0.217 0.197,-0.192C0.21,-0.167 0.228,-0.147 0.251,-0.134C0.273,-0.121 0.297,-0.114 0.322,-0.114C0.348,-0.114 0.372,-0.121 0.395,-0.134C0.418,-0.147 0.436,-0.165 0.449,-0.19C0.462,-0.214 0.469,-0.243 0.469,-0.277Z" style="fill:rgb(144,215,86);fill-opacity:0;fill-rule:nonzero;"/>
        </g>
        <g transform="matrix(82.7122,0,0,82.7122,396.796,73.3128)">
            <path d="M0.286,-0.563C0.327,-0.563 0.364,-0.555 0.395,-0.539C0.426,-0.522 0.451,-0.501 0.469,-0.475L0.469,-0.554L0.61,-0.554L0.61,0.004C0.61,0.055 0.6,0.101 0.579,0.142C0.558,0.182 0.527,0.214 0.486,0.238C0.445,0.261 0.395,0.273 0.336,0.273C0.257,0.273 0.193,0.255 0.143,0.218C0.092,0.181 0.064,0.131 0.057,0.068L0.196,0.068C0.203,0.093 0.219,0.114 0.244,0.129C0.268,0.143 0.297,0.151 0.332,0.151C0.373,0.151 0.406,0.139 0.431,0.115C0.456,0.09 0.469,0.053 0.469,0.004L0.469,-0.082C0.451,-0.056 0.426,-0.034 0.395,-0.017C0.363,0 0.327,0.009 0.286,0.009C0.239,0.009 0.197,-0.003 0.158,-0.027C0.119,-0.051 0.089,-0.085 0.067,-0.129C0.044,-0.172 0.033,-0.222 0.033,-0.279C0.033,-0.335 0.044,-0.385 0.067,-0.428C0.089,-0.471 0.119,-0.505 0.158,-0.528C0.196,-0.551 0.239,-0.563 0.286,-0.563ZM0.469,-0.277C0.469,-0.311 0.462,-0.34 0.449,-0.365C0.436,-0.389 0.418,-0.408 0.395,-0.421C0.372,-0.434 0.348,-0.44 0.322,-0.44C0.296,-0.44 0.272,-0.434 0.25,-0.421C0.228,-0.408 0.21,-0.39 0.197,-0.366C0.183,-0.341 0.176,-0.312 0.176,-0.279C0.176,-0.246 0.183,-0.217 0.197,-0.192C0.21,-0.167 0.228,-0.147 0.251,-0.134C0.273,-0.121 0.297,-0.114 0.322,-0.114C0.348,-0.114 0.372,-0.121 0.395,-0.134C0.418,-0.147 0.436,-0.165 0.449,-0.19C0.462,-0.214 0.469,-0.243 0.469,-0.277Z" style="fill:rgb(144,215,86);fill-rule:nonzero;"/>
        </g>
        <g transform="matrix(82.7122,0,0,82.7122,450.393,73.3128)">
            <path d="M0.286,-0.563C0.327,-0.563 0.364,-0.555 0.395,-0.539C0.426,-0.522 0.451,-0.501 0.469,-0.475L0.469,-0.554L0.61,-0.554L0.61,0.004C0.61,0.055 0.6,0.101 0.579,0.142C0.558,0.182 0.527,0.214 0.486,0.238C0.445,0.261 0.395,0.273 0.336,0.273C0.257,0.273 0.193,0.255 0.143,0.218C0.092,0.181 0.064,0.131 0.057,0.068L0.196,0.068C0.203,0.093 0.219,0.114 0.244,0.129C0.268,0.143 0.297,0.151 0.332,0.151C0.373,0.151 0.406,0.139 0.431,0.115C0.456,0.09 0.469,0.053 0.469,0.004L0.469,-0.082C0.451,-0.056 0.426,-0.034 0.395,-0.017C0.363,0 0.327,0.009 0.286,0.009C0.239,0.009 0.197,-0.003 0.158,-0.027C0.119,-0.051 0.089,-0.085 0.067,-0.129C0.044,-0.172 0.033,-0.222 0.033,-0.279C0.033,-0.335 0.044,-0.385 0.067,-0.428C0.089,-0.471 0.119,-0.505 0.158,-0.528C0.196,-0.551 0.239,-0.563 0.286,-0.563ZM0.469,-0.277C0.469,-0.311 0.462,-0.34 0.449,-0.365C0.436,-0.389 0.418,-0.408 0.395,-0.421C0.372,-0.434 0.348,-0.44 0.322,-0.44C0.296,-0.44 0.272,-0.434 0.25,-0.421C0.228,-0.408 0.21,-0.39 0.197,-0.366C0.183,-0.341 0.176,-0.312 0.176,-0.279C0.176,-0.246 0.183,-0.217 0.197,-0.192C0.21,-0.167 0.228,-0.147 0.251,-0.134C0.273,-0.121 0.297,-0.114 0.322,-0.114C0.348,-0.114 0.372,-0.121 0.395,-0.134C0.418,-0.147 0.436,-0.165 0.449,-0.19C0.462,-0.214 0.469,-0.243 0.469,-0.277Z" style="fill:rgb(144,215,86);fill-rule:nonzero;"/>
        </g>
        <g transform="matrix(82.7122,0,0,82.7122,503.991,73.3128)">
            <path d="M0.584,-0.289C0.584,-0.269 0.583,-0.251 0.58,-0.235L0.175,-0.235C0.178,-0.195 0.192,-0.164 0.217,-0.141C0.242,-0.118 0.272,-0.107 0.308,-0.107C0.36,-0.107 0.397,-0.129 0.419,-0.174L0.57,-0.174C0.554,-0.121 0.523,-0.077 0.478,-0.043C0.433,-0.008 0.377,0.009 0.311,0.009C0.258,0.009 0.21,-0.003 0.168,-0.027C0.125,-0.05 0.092,-0.084 0.069,-0.127C0.045,-0.17 0.033,-0.22 0.033,-0.277C0.033,-0.334 0.045,-0.385 0.068,-0.428C0.091,-0.471 0.124,-0.505 0.166,-0.528C0.208,-0.551 0.256,-0.563 0.311,-0.563C0.364,-0.563 0.411,-0.552 0.453,-0.529C0.494,-0.506 0.527,-0.474 0.55,-0.433C0.572,-0.391 0.584,-0.343 0.584,-0.289ZM0.439,-0.329C0.438,-0.365 0.425,-0.394 0.4,-0.416C0.375,-0.437 0.344,-0.448 0.307,-0.448C0.272,-0.448 0.243,-0.438 0.22,-0.417C0.196,-0.396 0.181,-0.366 0.176,-0.329L0.439,-0.329Z" style="fill:rgb(144,215,86);fill-opacity:0;fill-rule:nonzero;"/>
        </g>
        <g transform="matrix(82.7122,0,0,82.7122,552.543,73.3128)">
            <path d="M0.209,-0.468C0.227,-0.497 0.251,-0.52 0.28,-0.537C0.309,-0.554 0.342,-0.562 0.379,-0.562L0.379,-0.415L0.342,-0.415C0.298,-0.415 0.265,-0.405 0.243,-0.384C0.22,-0.363 0.209,-0.327 0.209,-0.276L0.209,-0L0.069,-0L0.069,-0.554L0.209,-0.554L0.209,-0.468Z" style="fill:rgb(144,215,86);fill-opacity:0;fill-rule:nonzero;"/>
        </g>
    </g>
</svg>
